# xmcd CD database file
#
# Track frame offsets:
#	150
#	21798
#	33517
#	48964
#	60407
#	82461
#	95739
#	118694
#	129404
#	145411
#	158742
#	166162
#
# Disc length: 2426 seconds
#
# Revision: 0
# Processed by: cddbd v1.5.2PL0 Copyright (c) Steve Scherf et al.
# Submitted via: CDex 1.70beta2
#
DISCID=a009780c
DTITLE=Justus and the Montanas - Spirit of the American West
DYEAR=2003
DGENRE=Country
TTITLE0=Ride Bandito Ride
TTITLE1=Matchstick Fiddle Smoke
TTITLE2=Cowboy Blues
TTITLE3=Daddy Don't Say No
TTITLE4=Westbound Stage
TTITLE5=Ride With You
TTITLE6=Leavin' Texas
TTITLE7=Ragun Cajan Eyes
TTITLE8=Back Out on the Range
TTITLE9=Lady Luck
TTITLE10=Round-Up
TTITLE11=The Alabama Hills
EXTD=YEAR: 2003
EXTT0=
EXTT1=
EXTT2=
EXTT3=
EXTT4=
EXTT5=
EXTT6=
EXTT7=
EXTT8=
EXTT9=
EXTT10=
EXTT11=
PLAYORDER=
